<svg width="158" height="39" viewBox="0 0 158 39" fill="none" xmlns="http://www.w3.org/2000/svg">
<path d="M19.988 27.7248V22.9248C19.988 22.5371 19.8307 22.1653 19.5506 21.8912C19.2704 21.6171 18.8905 21.4631 18.4944 21.4631H15.5071C15.1109 21.4631 14.731 21.6171 14.4509 21.8912C14.1708 22.1653 14.0134 22.5371 14.0134 22.9248V27.7219C11.7433 28.29 9.6946 29.5004 8.1235 31.2016C6.55239 32.9028 5.52855 35.0195 5.17995 37.2869C5.14588 37.4983 5.15898 37.7144 5.21835 37.9203C5.27771 38.1262 5.38194 38.3171 5.52386 38.4799C5.66578 38.6427 5.84203 38.7734 6.0405 38.8632C6.23898 38.953 6.45496 38.9997 6.67361 39H27.3518C27.5704 38.9997 27.7864 38.953 27.9849 38.8632C28.1833 38.7734 28.3596 38.6427 28.5015 38.4799C28.6434 38.3171 28.7476 38.1262 28.807 37.9203C28.8664 37.7144 28.8795 37.4983 28.8454 37.2869C28.4945 35.017 27.4669 32.8988 25.8913 31.1979C24.3157 29.4969 22.2622 28.2888 19.988 27.7248ZM33.8462 16.4321L26.3779 1.8156C26.255 1.57148 26.0648 1.3658 25.8289 1.2217C25.593 1.0776 25.3207 1.00082 25.0426 1H8.9589C8.68225 1.00055 8.41119 1.07628 8.17594 1.21874C7.94069 1.3612 7.7505 1.5648 7.62656 1.80683L0.158291 16.4233C0.0445147 16.6455 -0.00949456 16.8924 0.00136694 17.1407C0.0122284 17.389 0.0876022 17.6305 0.220365 17.8423C0.353129 18.0542 0.538897 18.2294 0.760118 18.3514C0.981339 18.4735 1.23071 18.5383 1.48466 18.5398H25.9627V22.9248C25.9627 23.3124 26.12 23.6842 26.4001 23.9583C26.6802 24.2324 27.0602 24.3864 27.4563 24.3864C27.8524 24.3864 28.2324 24.2324 28.5125 23.9583C28.7926 23.6842 28.95 23.3124 28.95 22.9248V18.5398H32.5168C32.7698 18.5381 33.0182 18.4735 33.2387 18.3521C33.4592 18.2307 33.6445 18.0565 33.7774 17.8459C33.9103 17.6352 33.9863 17.395 33.9983 17.1477C34.0103 16.9004 33.958 16.6542 33.8462 16.4321Z" fill="#252525"/>
<path d="M41.152 2.18182H45.9886L52.4659 17.9915H52.7216L59.1989 2.18182H64.0355V24H60.2429V9.01065H60.0405L54.0107 23.9361H51.1768L45.147 8.97869H44.9446V24H41.152V2.18182ZM75.4134 24.3196C73.7727 24.3196 72.3558 23.9787 71.1626 23.2969C69.9766 22.608 69.0639 21.6349 68.4247 20.3778C67.7855 19.1136 67.4659 17.6257 67.4659 15.9141C67.4659 14.2308 67.7855 12.7536 68.4247 11.4822C69.071 10.2038 69.973 9.20952 71.1307 8.49929C72.2884 7.78196 73.6484 7.4233 75.2109 7.4233C76.2195 7.4233 77.1712 7.58665 78.0661 7.91335C78.968 8.23295 79.7635 8.73011 80.4524 9.40483C81.1484 10.0795 81.6953 10.9389 82.093 11.983C82.4908 13.0199 82.6896 14.2557 82.6896 15.6903V16.8729H69.277V14.2734H78.9929C78.9858 13.5348 78.826 12.8778 78.5135 12.3026C78.201 11.7202 77.7642 11.2621 77.2031 10.9283C76.6491 10.5945 76.0028 10.4276 75.2642 10.4276C74.4759 10.4276 73.7834 10.6193 73.1868 11.0028C72.5902 11.3793 72.125 11.8764 71.7912 12.4943C71.4645 13.1051 71.2976 13.7763 71.2905 14.5078V16.777C71.2905 17.7287 71.4645 18.5455 71.8125 19.2273C72.1605 19.902 72.647 20.4205 73.272 20.7827C73.897 21.1378 74.6286 21.3153 75.4666 21.3153C76.0277 21.3153 76.5355 21.2372 76.9901 21.081C77.4446 20.9176 77.8388 20.6797 78.1726 20.3672C78.5064 20.0547 78.7585 19.6676 78.929 19.206L82.5298 19.6108C82.3026 20.5625 81.8693 21.3935 81.2301 22.1037C80.598 22.8068 79.7884 23.3537 78.8011 23.7443C77.8139 24.1278 76.6847 24.3196 75.4134 24.3196ZM99.0666 1.58523L100.409 4.07812C99.9331 4.49006 99.4004 4.78835 98.8109 4.97301C98.2214 5.15767 97.5289 5.27841 96.7335 5.33523C95.9451 5.38494 95.0076 5.42045 93.921 5.44176C92.6994 5.47017 91.7015 5.70099 90.9274 6.13423C90.1532 6.56747 89.5602 7.22443 89.1483 8.10511C88.7363 8.97869 88.4664 10.0937 88.3386 11.4503H88.5197C89.0311 10.4489 89.7484 9.68537 90.6717 9.1598C91.595 8.63423 92.6781 8.37145 93.921 8.37145C95.2775 8.37145 96.4743 8.67685 97.5112 9.28764C98.5552 9.89134 99.3684 10.7685 99.9508 11.919C100.54 13.0696 100.835 14.4616 100.835 16.0952C100.835 17.7784 100.519 19.2379 99.8869 20.4737C99.2548 21.7024 98.3564 22.6506 97.1916 23.3182C96.0339 23.9858 94.6596 24.3196 93.0687 24.3196C91.4849 24.3196 90.1071 23.9751 88.9352 23.2862C87.7704 22.5902 86.8684 21.5639 86.2292 20.2074C85.5971 18.8437 85.2811 17.1641 85.2811 15.1683V13.6982C85.2811 9.84872 85.9984 6.97585 87.4331 5.07955C88.8677 3.18324 90.9949 2.21733 93.8145 2.18182C94.6525 2.16761 95.4018 2.16406 96.0623 2.17116C96.7299 2.17827 97.3123 2.14631 97.8095 2.07528C98.3066 2.00426 98.7257 1.84091 99.0666 1.58523ZM93.09 21.2301C93.8784 21.2301 94.5602 21.0277 95.1355 20.6229C95.7108 20.2109 96.1511 19.6286 96.4565 18.8757C96.769 18.1229 96.9252 17.2315 96.9252 16.2017C96.9252 15.1861 96.769 14.3232 96.4565 13.6129C96.144 12.8956 95.7001 12.3487 95.1248 11.9723C94.5495 11.5959 93.8642 11.4077 93.0687 11.4077C92.4721 11.4077 91.9359 11.5142 91.46 11.7273C90.9842 11.9403 90.5794 12.2528 90.2456 12.6648C89.9118 13.0767 89.6561 13.5774 89.4785 14.1669C89.301 14.7564 89.2051 15.4347 89.1909 16.2017C89.1909 17.7429 89.5389 18.968 90.2349 19.8771C90.9309 20.7791 91.8826 21.2301 93.09 21.2301ZM111.361 24.3196C109.72 24.3196 108.303 23.9787 107.11 23.2969C105.924 22.608 105.011 21.6349 104.372 20.3778C103.733 19.1136 103.413 17.6257 103.413 15.9141C103.413 14.2308 103.733 12.7536 104.372 11.4822C105.018 10.2038 105.92 9.20952 107.078 8.49929C108.236 7.78196 109.596 7.4233 111.158 7.4233C112.167 7.4233 113.118 7.58665 114.013 7.91335C114.915 8.23295 115.711 8.73011 116.4 9.40483C117.096 10.0795 117.643 10.9389 118.04 11.983C118.438 13.0199 118.637 14.2557 118.637 15.6903V16.8729H105.224V14.2734H114.94C114.933 13.5348 114.773 12.8778 114.461 12.3026C114.148 11.7202 113.711 11.2621 113.15 10.9283C112.596 10.5945 111.95 10.4276 111.211 10.4276C110.423 10.4276 109.731 10.6193 109.134 11.0028C108.537 11.3793 108.072 11.8764 107.738 12.4943C107.412 13.1051 107.245 13.7763 107.238 14.5078V16.777C107.238 17.7287 107.412 18.5455 107.76 19.2273C108.108 19.902 108.594 20.4205 109.219 20.7827C109.844 21.1378 110.576 21.3153 111.414 21.3153C111.975 21.3153 112.483 21.2372 112.937 21.081C113.392 20.9176 113.786 20.6797 114.12 20.3672C114.454 20.0547 114.706 19.6676 114.876 19.206L118.477 19.6108C118.25 20.5625 117.817 21.3935 117.177 22.1037C116.545 22.8068 115.736 23.3537 114.748 23.7443C113.761 24.1278 112.632 24.3196 111.361 24.3196ZM120.77 24L120.749 20.8253H121.314C121.74 20.8253 122.098 20.7294 122.39 20.5376C122.681 20.3459 122.922 20.0263 123.114 19.5788C123.306 19.1243 123.455 18.5135 123.561 17.7464C123.668 16.9794 123.743 16.0241 123.785 14.8807L124.073 7.63636H136.005V24H132.276V10.8004H127.578L127.322 16.0739C127.258 17.4375 127.105 18.62 126.864 19.6214C126.63 20.6158 126.296 21.4361 125.863 22.0824C125.436 22.7287 124.9 23.2116 124.254 23.5312C123.608 23.8438 122.844 24 121.963 24H120.77ZM142.498 12.9631H147.324C149.412 12.9631 151.028 13.4709 152.171 14.4865C153.315 15.5021 153.89 16.8338 153.897 18.4815C153.89 19.554 153.627 20.5057 153.109 21.3366C152.597 22.1676 151.852 22.821 150.871 23.2969C149.898 23.7656 148.716 24 147.324 24H139.888V7.63636H143.606V20.8359H147.324C148.162 20.8359 148.851 20.6229 149.391 20.1967C149.93 19.7635 150.2 19.2095 150.2 18.5348C150.2 17.8246 149.93 17.2457 149.391 16.7983C148.851 16.3509 148.162 16.1271 147.324 16.1271H142.498V12.9631Z" fill="#252525"/>
<path d="M39.3693 38V36.9844H39.6278C39.8402 36.9844 40.0172 36.9428 40.1587 36.8597C40.3003 36.7736 40.4142 36.6243 40.5004 36.4119C40.5896 36.1965 40.6573 35.898 40.7035 35.5163C40.7527 35.1316 40.7881 34.6423 40.8097 34.0483L40.9389 30.9091H45.6662V38H44.5767V31.9247H41.973L41.8622 34.4545C41.8376 35.0362 41.7853 35.5487 41.7053 35.9918C41.6283 36.4319 41.5098 36.8013 41.3498 37.0998C41.1928 37.3983 40.9835 37.623 40.7219 37.7738C40.4603 37.9246 40.1326 38 39.7386 38H39.3693ZM51.0629 34.0114V35.027H47.3143V34.0114H51.0629ZM48.2376 30.9091V38H47.1481V30.9091H48.2376ZM53.2418 38.1477C52.6017 38.1477 52.04 37.9954 51.5568 37.6907C51.0767 37.386 50.7012 36.9598 50.4304 36.4119C50.1626 35.8641 50.0288 35.224 50.0288 34.4915C50.0288 33.7528 50.1626 33.1081 50.4304 32.5572C50.7012 32.0063 51.0767 31.5785 51.5568 31.2738C52.04 30.9691 52.6017 30.8168 53.2418 30.8168C53.882 30.8168 54.4421 30.9691 54.9222 31.2738C55.4054 31.5785 55.7809 32.0063 56.0487 32.5572C56.3195 33.1081 56.4549 33.7528 56.4549 34.4915C56.4549 35.224 56.3195 35.8641 56.0487 36.4119C55.7809 36.9598 55.4054 37.386 54.9222 37.6907C54.4421 37.9954 53.882 38.1477 53.2418 38.1477ZM53.2418 37.169C53.7281 37.169 54.1282 37.0444 54.4421 36.7951C54.756 36.5458 54.9884 36.218 55.1392 35.8118C55.29 35.4055 55.3654 34.9654 55.3654 34.4915C55.3654 34.0175 55.29 33.5759 55.1392 33.1665C54.9884 32.7572 54.756 32.4264 54.4421 32.174C54.1282 31.9216 53.7281 31.7955 53.2418 31.7955C52.7556 31.7955 52.3555 31.9216 52.0415 32.174C51.7276 32.4264 51.4953 32.7572 51.3445 33.1665C51.1937 33.5759 51.1183 34.0175 51.1183 34.4915C51.1183 34.9654 51.1937 35.4055 51.3445 35.8118C51.4953 36.218 51.7276 36.5458 52.0415 36.7951C52.3555 37.0444 52.7556 37.169 53.2418 37.169ZM63.4904 28.25L64.0444 28.9148C63.829 29.1241 63.5797 29.2702 63.2965 29.3533C63.0134 29.4364 62.6933 29.4872 62.3363 29.5057C61.9793 29.5241 61.5823 29.5426 61.1452 29.5611C60.6528 29.5795 60.245 29.6996 59.9219 29.9212C59.5987 30.1428 59.3494 30.4628 59.174 30.8814C58.9986 31.3 58.8862 31.8139 58.837 32.4233H58.9293C59.1694 31.9801 59.5018 31.6539 59.9265 31.4446C60.3512 31.2353 60.8067 31.1307 61.293 31.1307C61.8469 31.1307 62.3455 31.2599 62.7887 31.5185C63.2319 31.777 63.5827 32.1602 63.8413 32.668C64.0998 33.1758 64.229 33.8021 64.229 34.5469C64.229 35.2886 64.0967 35.9287 63.832 36.4673C63.5704 37.0059 63.2027 37.4214 62.7287 37.7138C62.2578 38.0031 61.7054 38.1477 61.0714 38.1477C60.4374 38.1477 59.8819 37.9985 59.4048 37.6999C58.9278 37.3983 58.5569 36.9521 58.2923 36.3612C58.0276 35.7672 57.8952 35.0331 57.8952 34.1591V33.402C57.8952 31.8232 58.163 30.6259 58.6985 29.8104C59.2371 28.9948 60.0465 28.5732 61.1268 28.5455C61.5084 28.5331 61.8485 28.5301 62.147 28.5362C62.4455 28.5424 62.7056 28.5285 62.9272 28.4947C63.1488 28.4608 63.3365 28.3793 63.4904 28.25ZM61.0714 37.169C61.4992 37.169 61.867 37.0613 62.1747 36.8459C62.4856 36.6304 62.7241 36.3273 62.8903 35.9364C63.0565 35.5425 63.1396 35.0793 63.1396 34.5469C63.1396 34.0298 63.0549 33.5897 62.8857 33.2266C62.7195 32.8634 62.4809 32.5864 62.1701 32.3956C61.8593 32.2048 61.4869 32.1094 61.0529 32.1094C60.7359 32.1094 60.4512 32.1632 60.1989 32.271C59.9465 32.3787 59.7311 32.5372 59.5526 32.7464C59.3741 32.9557 59.2356 33.2112 59.1371 33.5128C59.0417 33.8144 58.9909 34.1591 58.9847 34.5469C58.9847 35.3409 59.1709 35.9764 59.5433 36.4535C59.9157 36.9305 60.4251 37.169 61.0714 37.169ZM68.7763 38.1477C68.1361 38.1477 67.5745 37.9954 67.0913 37.6907C66.6112 37.386 66.2357 36.9598 65.9648 36.4119C65.6971 35.8641 65.5632 35.224 65.5632 34.4915C65.5632 33.7528 65.6971 33.1081 65.9648 32.5572C66.2357 32.0063 66.6112 31.5785 67.0913 31.2738C67.5745 30.9691 68.1361 30.8168 68.7763 30.8168C69.4164 30.8168 69.9766 30.9691 70.4567 31.2738C70.9399 31.5785 71.3153 32.0063 71.5831 32.5572C71.8539 33.1081 71.9893 33.7528 71.9893 34.4915C71.9893 35.224 71.8539 35.8641 71.5831 36.4119C71.3153 36.9598 70.9399 37.386 70.4567 37.6907C69.9766 37.9954 69.4164 38.1477 68.7763 38.1477ZM68.7763 37.169C69.2625 37.169 69.6626 37.0444 69.9766 36.7951C70.2905 36.5458 70.5228 36.218 70.6737 35.8118C70.8245 35.4055 70.8999 34.9654 70.8999 34.4915C70.8999 34.0175 70.8245 33.5759 70.6737 33.1665C70.5228 32.7572 70.2905 32.4264 69.9766 32.174C69.6626 31.9216 69.2625 31.7955 68.7763 31.7955C68.29 31.7955 67.8899 31.9216 67.576 32.174C67.2621 32.4264 67.0297 32.7572 66.8789 33.1665C66.7281 33.5759 66.6527 34.0175 66.6527 34.4915C66.6527 34.9654 66.7281 35.4055 66.8789 35.8118C67.0297 36.218 67.2621 36.5458 67.576 36.7951C67.8899 37.0444 68.29 37.169 68.7763 37.169ZM74.7419 36.3935L78.1581 30.9091H79.4138V38H78.3243V32.5156L74.9266 38H73.6524V30.9091H74.7419V36.3935ZM77.4379 28.5455H78.4536C78.4536 29.044 78.2812 29.4518 77.9365 29.7688C77.5918 30.0858 77.124 30.2443 76.5331 30.2443C75.9514 30.2443 75.4883 30.0858 75.1436 29.7688C74.8019 29.4518 74.6311 29.044 74.6311 28.5455H75.6468C75.6468 28.7855 75.7129 28.9963 75.8453 29.1779C75.9807 29.3595 76.21 29.4503 76.5331 29.4503C76.8563 29.4503 77.0871 29.3595 77.2256 29.1779C77.3672 28.9963 77.4379 28.7855 77.4379 28.5455ZM87.9462 38.1477C87.2814 38.1477 86.709 37.9908 86.2289 37.6768C85.7488 37.3629 85.3794 36.9305 85.1209 36.3796C84.8624 35.8287 84.7331 35.1993 84.7331 34.4915C84.7331 33.7713 84.8655 33.1358 85.1301 32.5849C85.3979 32.0309 85.7703 31.5985 86.2473 31.2876C86.7275 30.9737 87.2876 30.8168 87.9277 30.8168C88.4263 30.8168 88.8757 30.9091 89.2757 31.0938C89.6758 31.2784 90.0036 31.5369 90.2591 31.8693C90.5145 32.2017 90.673 32.5895 90.7346 33.0327H89.6451C89.562 32.7095 89.3773 32.4233 89.0911 32.174C88.8079 31.9216 88.4263 31.7955 87.9462 31.7955C87.5215 31.7955 87.1491 31.9062 86.829 32.1278C86.512 32.3464 86.2643 32.6557 86.0858 33.0558C85.9103 33.4528 85.8226 33.919 85.8226 34.4545C85.8226 35.0024 85.9088 35.4794 86.0811 35.8857C86.2566 36.2919 86.5028 36.6074 86.8198 36.832C87.1399 37.0567 87.5153 37.169 87.9462 37.169C88.2293 37.169 88.4863 37.1198 88.7172 37.0213C88.948 36.9228 89.1434 36.7812 89.3034 36.5966C89.4635 36.4119 89.5774 36.1903 89.6451 35.9318H90.7346C90.673 36.3504 90.5207 36.7274 90.2775 37.0629C90.0375 37.3952 89.7189 37.6599 89.3219 37.8569C88.928 38.0508 88.4694 38.1477 87.9462 38.1477ZM91.6994 38V36.9844H91.9579C92.1703 36.9844 92.3472 36.9428 92.4888 36.8597C92.6304 36.7736 92.7443 36.6243 92.8304 36.4119C92.9197 36.1965 92.9874 35.898 93.0336 35.5163C93.0828 35.1316 93.1182 34.6423 93.1397 34.0483L93.269 30.9091H97.9963V38H96.9068V31.9247H94.3031L94.1923 34.4545C94.1677 35.0362 94.1154 35.5487 94.0353 35.9918C93.9584 36.4319 93.8399 36.8013 93.6799 37.0998C93.5229 37.3983 93.3136 37.623 93.052 37.7738C92.7904 37.9246 92.4627 38 92.0687 38H91.6994ZM102.876 38.1477C102.236 38.1477 101.674 37.9954 101.191 37.6907C100.711 37.386 100.335 36.9598 100.064 36.4119C99.7967 35.8641 99.6628 35.224 99.6628 34.4915C99.6628 33.7528 99.7967 33.1081 100.064 32.5572C100.335 32.0063 100.711 31.5785 101.191 31.2738C101.674 30.9691 102.236 30.8168 102.876 30.8168C103.516 30.8168 104.076 30.9691 104.556 31.2738C105.039 31.5785 105.415 32.0063 105.683 32.5572C105.954 33.1081 106.089 33.7528 106.089 34.4915C106.089 35.224 105.954 35.8641 105.683 36.4119C105.415 36.9598 105.039 37.386 104.556 37.6907C104.076 37.9954 103.516 38.1477 102.876 38.1477ZM102.876 37.169C103.362 37.169 103.762 37.0444 104.076 36.7951C104.39 36.5458 104.622 36.218 104.773 35.8118C104.924 35.4055 104.999 34.9654 104.999 34.4915C104.999 34.0175 104.924 33.5759 104.773 33.1665C104.622 32.7572 104.39 32.4264 104.076 32.174C103.762 31.9216 103.362 31.7955 102.876 31.7955C102.39 31.7955 101.99 31.9216 101.676 32.174C101.362 32.4264 101.129 32.7572 100.979 33.1665C100.828 33.5759 100.752 34.0175 100.752 34.4915C100.752 34.9654 100.828 35.4055 100.979 35.8118C101.129 36.218 101.362 36.5458 101.676 36.7951C101.99 37.0444 102.39 37.169 102.876 37.169ZM107.017 38L109.898 34.3991L107.054 30.9091H108.346L110.71 33.9375H111.301V30.9091H112.39V33.9375H112.963L115.327 30.9091H116.619L113.794 34.3991L116.656 38H115.345L112.944 34.9531H112.39V38H111.301V34.9531H110.747L108.328 38H107.017ZM122.959 33.956V34.9716H119.044V33.956H122.959ZM119.302 30.9091V38H118.213V30.9091H119.302ZM123.79 30.9091V38H122.7V30.9091H123.79ZM128.66 38.1477C128.02 38.1477 127.458 37.9954 126.975 37.6907C126.495 37.386 126.119 36.9598 125.849 36.4119C125.581 35.8641 125.447 35.224 125.447 34.4915C125.447 33.7528 125.581 33.1081 125.849 32.5572C126.119 32.0063 126.495 31.5785 126.975 31.2738C127.458 30.9691 128.02 30.8168 128.66 30.8168C129.3 30.8168 129.86 30.9691 130.34 31.2738C130.824 31.5785 131.199 32.0063 131.467 32.5572C131.738 33.1081 131.873 33.7528 131.873 34.4915C131.873 35.224 131.738 35.8641 131.467 36.4119C131.199 36.9598 130.824 37.386 130.34 37.6907C129.86 37.9954 129.3 38.1477 128.66 38.1477ZM128.66 37.169C129.146 37.169 129.546 37.0444 129.86 36.7951C130.174 36.5458 130.407 36.218 130.557 35.8118C130.708 35.4055 130.784 34.9654 130.784 34.4915C130.784 34.0175 130.708 33.5759 130.557 33.1665C130.407 32.7572 130.174 32.4264 129.86 32.174C129.546 31.9216 129.146 31.7955 128.66 31.7955C128.174 31.7955 127.774 31.9216 127.46 32.174C127.146 32.4264 126.914 32.7572 126.763 33.1665C126.612 33.5759 126.536 34.0175 126.536 34.4915C126.536 34.9654 126.612 35.4055 126.763 35.8118C126.914 36.218 127.146 36.5458 127.46 36.7951C127.774 37.0444 128.174 37.169 128.66 37.169ZM136.417 38.1477C135.752 38.1477 135.18 37.9908 134.7 37.6768C134.219 37.3629 133.85 36.9305 133.592 36.3796C133.333 35.8287 133.204 35.1993 133.204 34.4915C133.204 33.7713 133.336 33.1358 133.601 32.5849C133.869 32.0309 134.241 31.5985 134.718 31.2876C135.198 30.9737 135.758 30.8168 136.398 30.8168C136.897 30.8168 137.346 30.9091 137.746 31.0938C138.147 31.2784 138.474 31.5369 138.73 31.8693C138.985 32.2017 139.144 32.5895 139.205 33.0327H138.116C138.033 32.7095 137.848 32.4233 137.562 32.174C137.279 31.9216 136.897 31.7955 136.417 31.7955C135.992 31.7955 135.62 31.9062 135.3 32.1278C134.983 32.3464 134.735 32.6557 134.556 33.0558C134.381 33.4528 134.293 33.919 134.293 34.4545C134.293 35.0024 134.379 35.4794 134.552 35.8857C134.727 36.2919 134.973 36.6074 135.29 36.832C135.611 37.0567 135.986 37.169 136.417 37.169C136.7 37.169 136.957 37.1198 137.188 37.0213C137.419 36.9228 137.614 36.7812 137.774 36.5966C137.934 36.4119 138.048 36.1903 138.116 35.9318H139.205C139.144 36.3504 138.991 36.7274 138.748 37.0629C138.508 37.3952 138.19 37.6599 137.793 37.8569C137.399 38.0508 136.94 38.1477 136.417 38.1477ZM140.239 31.9247V30.9091H146.001V31.9247H143.674V38H142.585V31.9247H140.239ZM148.679 36.3935L152.096 30.9091H153.351V38H152.262V32.5156L148.864 38H147.59V30.9091H148.679V36.3935Z" fill="#252525"/>
</svg>
